<svg width="1200" height="420" viewBox="0 0 1200 420" fill="none" xmlns="http://www.w3.org/2000/svg">
  <defs>
    <linearGradient id="blueGrad" x1="120" y1="80" x2="360" y2="330" gradientUnits="userSpaceOnUse">
      <stop stop-color="#41BDF5"/>
      <stop offset="1" stop-color="#2563EB"/>
    </linearGradient>
    <linearGradient id="purpleGrad" x1="325" y1="80" x2="425" y2="180" gradientUnits="userSpaceOnUse">
      <stop stop-color="#8B5CF6"/>
      <stop offset="1" stop-color="#38BDF8"/>
    </linearGradient>
    <filter id="softShadow" x="-20%" y="-20%" width="140%" height="140%">
      <feDropShadow dx="0" dy="18" stdDeviation="14" flood-color="#020617" flood-opacity="0.35"/>
    </filter>
  </defs>

  <rect width="1200" height="420" rx="34" fill="#0B1020"/>

  <g filter="url(#softShadow)">
    <rect x="80" y="70" width="300" height="260" rx="34" fill="url(#blueGrad)" stroke="#93C5FD" stroke-width="4"/>
    <path d="M110 105H330C350 105 362 118 362 136V312H110V105Z" fill="#0F172A" fill-opacity="0.25"/>
    <path d="M135 120H335" stroke="#E0F2FE" stroke-width="14" stroke-linecap="round"/>
    <path d="M135 145H315" stroke="#BAE6FD" stroke-width="6" stroke-linecap="round" opacity="0.8"/>

    <path d="M155 225L230 160L305 225V288H255V242H205V288H155V225Z"
          fill="#F8FAFC" stroke="#0F172A" stroke-width="12" stroke-linejoin="round"/>

    <circle cx="230" cy="210" r="12" fill="#F8FAFC" stroke="#0F172A" stroke-width="8"/>
    <circle cx="195" cy="245" r="12" fill="#F8FAFC" stroke="#0F172A" stroke-width="8"/>
    <circle cx="265" cy="245" r="12" fill="#F8FAFC" stroke="#0F172A" stroke-width="8"/>
    <circle cx="230" cy="275" r="12" fill="#F8FAFC" stroke="#0F172A" stroke-width="8"/>
    <path d="M230 222V288M230 238L195 245M230 238L265 245M230 255L230 263"
          stroke="#0F172A" stroke-width="7" stroke-linecap="round"/>

    <path d="M110 270C90 270 90 300 110 300H135C150 300 150 325 130 325H100"
          stroke="#F8FAFC" stroke-width="15" stroke-linecap="round" stroke-linejoin="round"/>
    <circle cx="150" cy="300" r="22" fill="#FACC15" stroke="#0F172A" stroke-width="8"/>

    <path d="M350 75C382 40 440 63 440 112C440 165 350 215 350 215C350 215 260 165 260 112C260 63 318 40 350 75Z"
          fill="#EF4444" stroke="#0F172A" stroke-width="12"/>
    <path d="M313 118L343 148L397 90"
          stroke="#FEF3C7" stroke-width="19" stroke-linecap="round" stroke-linejoin="round"/>
  </g>

  <text x="470" y="185" fill="#F8FAFC" font-family="Segoe UI, Inter, Arial, sans-serif" font-size="92" font-weight="800" letter-spacing="-4">
    HA<tspan fill="#38BDF8">Docs</tspan>
  </text>
  <text x="475" y="245" fill="#CBD5E1" font-family="Segoe UI, Inter, Arial, sans-serif" font-size="32" font-weight="500">
    Smart Home Intelligence
  </text>
  <text x="475" y="295" fill="#94A3B8" font-family="Segoe UI, Inter, Arial, sans-serif" font-size="24">
    Understand your Home Assistant installation.
  </text>
</svg>
